<?xml version="1.0" encoding="UTF-8"?>
<svg viewBox="0 0 300 300" xmlns="http://www.w3.org/2000/svg">
  <!-- Definitions for gradients -->
  <defs>
    <linearGradient id="bgGradient" x1="0%" y1="0%" x2="100%" y2="100%">
      <stop offset="0%" stop-color="#2A3B8F" />
      <stop offset="100%" stop-color="#1E5C9B" />
    </linearGradient>
    <linearGradient id="qGradient" x1="0%" y1="0%" x2="100%" y2="100%">
      <stop offset="0%" stop-color="#FFD700" />
      <stop offset="100%" stop-color="#FFA500" />
    </linearGradient>
  </defs>
  
  <!-- Main Circle -->
  <circle cx="150" cy="150" r="130" fill="url(#bgGradient)" />
  
  <!-- Decorative outer ring -->
  <circle cx="150" cy="150" r="125" fill="none" stroke="#FFFFFF" stroke-width="1.5" stroke-opacity="0.3" />
  
  <!-- Inner accent circle -->
  <circle cx="150" cy="150" r="110" fill="none" stroke="#FFFFFF" stroke-width="1" stroke-opacity="0.2" />
  
  <!-- Question mark symbol -->
  <path d="M150,70 C123,70 105,88 105,115 L130,115 C130,102 138,95 150,95 C162,95 170,102 170,115 C170,128 150,130 150,160 L150,175 L170,175 L170,160 C170,140 195,135 195,115 C195,88 177,70 150,70 Z" fill="url(#qGradient)" />
  
  <!-- Question mark dot -->
  <circle cx="150" cy="195" r="15" fill="url(#qGradient)" />
  
  <!-- Small decorative dots -->
  <circle cx="90" cy="150" r="5" fill="#FFFFFF" fill-opacity="0.8" />
  <circle cx="210" cy="150" r="5" fill="#FFFFFF" fill-opacity="0.8" />
  <circle cx="150" cy="90" r="5" fill="#FFFFFF" fill-opacity="0.8" />
  <circle cx="150" cy="210" r="5" fill="#FFFFFF" fill-opacity="0.8" />
  
  <!-- Subtle light effect -->
  <circle cx="120" cy="120" r="80" fill="white" fill-opacity="0.1" />
</svg>